<?xml version="1.0" encoding="utf-8"?>
<!-- Generator: Adobe Illustrator 26.0.2, SVG Export Plug-In . SVG Version: 6.00 Build 0)  -->
<svg version="1.1" id="Ebene_1" xmlns="http://www.w3.org/2000/svg" xmlns:xlink="http://www.w3.org/1999/xlink" x="0px" y="0px"
	 viewBox="0 0 1000 492.7" style="enable-background:new 0 0 1000 492.7;" xml:space="preserve">
<style type="text/css">
	.st0{fill:none;}
	.st1{fill:#FFFFFF;}
	.st2{fill:#F39913;}
	.st3{fill-rule:evenodd;clip-rule:evenodd;fill:#FFFFFF;}
</style>
<g>
	<g>
		<path d="M681.4,128.2L681.4,128.2l-9.2-0.4c0.9-4.5,1.7-8.3,2.4-11.2c8.3-36.9,32.8-58.9,32.8-58.9L501,22.1L294.6,57.7
			c0,0,24.5,22.1,32.8,58.9c0.7,2.9,1.5,6.7,2.4,11.2l-9.1,0.4h-0.1L21.4,140.8l19.5,115.3l319.3,17.1c1.3,5.8,2.6,11.5,3.8,16.9
			c0.8,3.6,1.2,7.1,1.2,10.4c0,26.8-23.6,45.3-23.6,45.3l9.1,1.6v60.4h299.9v-60.3l9.7-1.8c0,0-23.6-18.5-23.6-45.3
			c0-3.4,0.4-6.8,1.2-10.4c1.3-5.4,2.5-11.1,3.8-16.9l321.5-16.9l19.5-115.6L681.4,128.2z"/>
		<path class="st0" d="M666,338.7L666,338.7"/>
		<path class="st1" d="M983.2,131.7l-299.9-12.5c0-0.2,0.1-0.3,0.1-0.5c3.9-17.3,11.8-31.1,17.7-39.6c6.5-9.3,12.2-14.5,12.3-14.6
			l0,0l13.9-12.6l-18.5-3.2L502.5,13l-1.6-0.3l-1.6,0.3L293.1,48.7l-18.5,3.2l13.9,12.6l0,0c0.1,0.1,5.7,5.3,12.3,14.6
			c5.9,8.5,13.8,22.2,17.7,39.6c0,0.2,0.1,0.3,0.1,0.5L21,131.7l-10.4,0.4l1.7,10.2l19.5,115.3l1.2,7.2l7.3,0.4L352.7,282
			c0.8,3.6,1.6,7,2.3,10.2c2.5,10.7,0.2,21.6-6.8,32.4c-5.5,8.4-11.9,13.7-12.3,14L320,351.2l19.9,3.6l1.6,0.3v52.8v9.2h9.2h299.9
			h9.2v-9.2v-52.6l2.2-0.4l20-3.6l-16-12.6c-0.4-0.3-6.8-5.6-12.3-14c-7-10.8-9.3-21.7-6.8-32.4c0.8-3.3,1.5-6.7,2.3-10.2
			l314.6-16.5l7.3-0.4l1.2-7.2l19.5-115.6l1.7-10.2L983.2,131.7z M641.7,273.3c-1.3,5.8-2.6,11.4-3.8,16.9
			c-0.8,3.6-1.2,7.1-1.2,10.4c0,26.8,23.6,45.3,23.6,45.3l-9.7,1.8V408H350.7v-60.4l-9.1-1.6c0,0,23.6-18.5,23.6-45.3
			c0-3.4-0.4-6.8-1.2-10.4c-1.3-5.4-2.6-11.1-3.8-16.9L40.9,256.1L21.4,140.8l299.2-12.6h0.1l9.1-0.4c-0.9-4.5-1.7-8.2-2.4-11.2
			c-8.3-36.9-32.8-58.9-32.8-58.9L501,22.1l206.3,35.7c0,0-24.5,22.1-32.8,58.9c-0.6,2.9-1.5,6.7-2.4,11.2l9.1,0.4h0.1l301.4,12.6
			l-19.5,115.6L641.7,273.3z"/>
	</g>
	<path class="st1" d="M501,34.4c-1.5,0.2-164.6,26.8-183.4,29.8c4.7,4.1,33.6,29.6,36.2,53.6c0,0,23.4,151.3,27.4,177.3
		s-17.8,44-17.8,44L501,362.2l137.5-23.1c0,0-21.9-18-17.8-44c4-26,27.4-177.3,27.4-177.3c2.7-24.1,31.6-49.6,36.2-53.6
		C665.5,61.2,502.5,34.7,501,34.4z"/>
	<path class="st2" d="M403.3,193.4c0-34.7,18.2-65.1,45.4-82.4l-4.8-56.4l-104,17.2c0,0,23.2,20.2,26.2,47.1
		c0,0,22.9,163.1,25.9,181.3c3,18.3-6.6,31.6-6.6,31.6l82.1,13.4l-5.3-62.3C427.5,268,403.3,233.5,403.3,193.4z"/>
	<path class="st2" d="M597.6,193.4c0-34.7-18.2-65.1-45.5-82.4l4.8-56.4l104,17.2c0,0-23.2,20.2-26.2,47.1
		c0,0-22.9,163.1-25.9,181.3c-3,18.3,6.6,31.6,6.6,31.6l-82.1,13.4l5.3-62.3C573.4,268,597.6,233.5,597.6,193.4z"/>
	<path d="M581.7,193.4c0-35.7-23.1-66-55.2-76.7l2.4-66.6l-28-4.8l-28.3,4.8l2.4,66.6c-32.1,10.7-55.2,41-55.2,76.7
		c0,37.8,25.9,69.5,60.9,78.4l2.8,76.6l17.4,3l17-3l2.8-76.6C555.8,262.8,581.7,231.1,581.7,193.4z"/>
	<g>
		<g>
			<g>
				<path class="st1" d="M499.6,177.4c0,0,21.3,0,27.6,0c4.7,0,4.6,9.3,11.8,9.3h16.5l3.8-17h-77.7c-3.3,0-4.8,1.9-5.4,5.1
					c-0.7,3.5-4.6,19.7-8.2,34.4h-4.2c-4,0-1.8-6.9-1.8-6.9s-0.1,0,11.7-46.7c0.4-1.5,3.8-1.7,3.8-1.7s21.3,0,27.6,0
					c4.7,0,4.6,9.3,11.8,9.3h16.4l3.8-17h-77.7c-3.3,0-4.8,1.9-5.4,5.1c-1.1,5.4-9.8,40.9-13,54.3c-2.6,11.1,7.3,11.3,7.3,11.3
					s7.5,0,17.8,0c-1.2,4.9-2.2,9.2-2.9,12.3c-2.6,11.1,7.3,11.3,7.3,11.3s58.2,0,73,0l3.8-16.9h-16.9c-8.8,0-9.1,9.3-16.1,9.3H486
					c-4,0-1.8-6.9-1.8-6.9s0,0,2.2-8.9h35.1l3.8-16.9h-16.9c-8.8,0-9.1,9.2-16.1,9.2h-3.9c1.7-6.8,4.1-16.4,7.6-30
					C496.3,177.6,499.6,177.4,499.6,177.4z"/>
			</g>
		</g>
	</g>
	<g>
		<path class="st3" d="M220.8,158.5H181c-0.5,0-0.8,0.4-0.8,0.8v26.1c0,0.5,0.4,0.8,0.8,0.8h8.5c0.5,0,0.8-0.4,0.8-0.8v-17.1h5.4
			v59.6H191c-0.5,0-0.8,0.4-0.8,0.8v8.1c0,0.5,0.4,0.8,0.8,0.8h19.7c0.4,0,0.8-0.4,0.8-0.8v-8.1c0-0.5-0.4-0.8-0.8-0.8h-4.6v-59.6
			h5.4v17.1c0,0.5,0.4,0.8,0.8,0.8h8.5c0.5,0,0.8-0.4,0.8-0.8v-26.1C221.6,158.8,221.2,158.5,220.8,158.5z"/>
		<path class="st3" d="M243.7,157.7c-10,0-17,8.1-17,18.2v44.5c0,10,7,18.2,17,18.2s17-8.1,17-18.2v-44.5
			C260.7,165.8,253.8,157.7,243.7,157.7z M249.6,222.2c0,3.3-2.6,5.9-5.9,5.9c-3.3,0-5.9-2.6-5.9-5.9v-48.8c0-3.3,2.6-5.9,5.9-5.9
			c3.3,0,5.9,2.6,5.9,5.9V222.2z"/>
		<path class="st3" d="M323.3,168.4c0.5,0,0.8-0.4,0.8-0.8v-8.2c0-0.5-0.4-0.8-0.8-0.8h-19.8c-0.5,0-0.8,0.4-0.8,0.8l-8.9,45.8
			l-8.8-45.8c0-0.5-0.4-0.8-0.8-0.8h-19.1c-0.5,0-0.8,0.4-0.8,0.8v8.2c0,0.5,0.4,0.8,0.8,0.8h5v59.5h-5c-0.5,0-0.8,0.4-0.8,0.8v8.1
			c0,0.5,0.4,0.8,0.8,0.8h17.8c0.5,0,0.8-0.4,0.8-0.8v-8.1c0-0.5-0.4-0.8-0.8-0.8h-3.5v-46.6l11.4,55.5c0,0.5,0.4,0.8,0.8,0.8h4.1
			c0.4,0,0.8-0.4,0.8-0.8l12.8-55.5v46.6h-3.6c-0.4,0-0.8,0.4-0.8,0.8v8.1c0,0.5,0.4,0.8,0.8,0.8h17.6c0.5,0,0.8-0.4,0.8-0.8v-8.1
			c0-0.5-0.4-0.8-0.8-0.8h-4.7v-59.5H323.3z"/>
		<path class="st3" d="M138.1,158.5h-16.9c-0.5,0-0.8,0.4-0.8,0.8v8.2c0,0.5,0.4,0.8,0.8,0.8h2.6v53.9c0,3.3-2.6,5.9-5.9,5.9
			s-5.9-2.6-5.9-5.9v-53.9h2.6c0.5,0,0.8-0.4,0.8-0.8v-8.2c0-0.5-0.4-0.8-0.8-0.8H97.7c-0.4,0-0.8,0.4-0.8,0.8v8.2
			c0,0.5,0.4,0.8,0.8,0.8h4.3v51.9c0,10,5.9,18.2,15.9,18.2s15.9-8.1,15.9-18.2v-51.9h4.3c0.5,0,0.8-0.4,0.8-0.8v-8.2
			C139,158.8,138.6,158.5,138.1,158.5z"/>
		<path class="st3" d="M92.1,209.5c0-0.7,0-1.7,0-1.7c0-0.5-0.3-0.8-0.8-0.8h-8.6c-0.4,0-0.7,0.3-0.8,0.7l0,0c0,0,0,0.1,0,0.2v14.5
			c0,3.3-2.5,5.9-5.7,5.9c-3.3,0-5.9-2.6-5.9-5.9v-48.8c0-3.3,2.6-5.9,5.9-5.9c2.7,0,5.7,2.3,5.7,4.6c0,2.2,0,13.3,0,13.3l0,0
			c0,0.4,0.4,0.8,0.8,0.8h8.6c0.5,0,0.8-0.4,0.8-0.8v-26.1c0-0.5-0.2-0.8-0.7-0.8h-8.9c-0.4,0-0.7,0.4-0.7,0.8c0,0,0,1.7,0,3.6
			c0,0.5-0.4,0.8-0.8,0.8c-0.3,0-0.6-0.2-0.7-0.4c-1.2-2.1-3.6-5.1-9.9-5.1c-6.2,0-10.9,5.5-10.9,10.3s0,39.9,0,41
			c0,12.3,0.3,15.3,2.9,21c1.8,3.9,6.4,8,13.5,8c7.2,0,11.9-3.5,14.4-8C92.8,226,92.1,212.5,92.1,209.5z"/>
		<path class="st3" d="M175.3,213c-2.4-4.2-14.5-21.2-18.3-26.8c-2.5-3.8-4.1-8-4.1-11.5c0-1.3,0.3-2.7,0.7-4c1-1.9,3-3.2,5.2-3.2
			c2.7,0,5.7,2.3,5.7,4.6c0,2.2,0,13.3,0,13.3l0,0c0,0.4,0.4,0.8,0.8,0.8h8.6c0.5,0,0.8-0.4,0.8-0.8v-26.1c0-0.5-0.2-0.8-0.7-0.8
			h-4.3c-0.5,0-0.8,0.5-1,0.8c-0.4,0.7-1.9,3-2.3,3.6c-0.3,0.5-0.6,0.8-1,0.8c-0.3,0-0.6-0.2-0.7-0.4c-1.2-2.1-3.1-5.1-8.7-5.1
			c-6.7,0-14.2,4.2-14.2,17.9c0,0.2,0,0.7,0,0.7l0,0c0.1,4.1,1.4,7.4,3.6,11c1.8,2.9,18.7,27.8,19.7,29.5s2.3,5.7,0.3,8.9
			c-1.7,2.6-6.2,3.3-9.2,1.5c-3.6-2.2-5-4.9-6.2-11.7c-0.2-0.9-0.7-6.7-0.7-6.7c0-0.5-0.4-0.8-0.8-0.8h-6.8c-0.5,0-0.8,0.4-0.8,0.8
			v27.5c0,0.5,0.4,0.8,0.8,0.8c0,0,5.1,0.1,6.4,0c0,0,0.6-2.5,2.7-2.5c2.1,0,3.1,2.8,11.9,2.8C175.4,237.9,180.8,222.6,175.3,213z"
			/>
	</g>
	<g>
		<path class="st3" d="M754.8,168.3c0.4,0,0.8-0.4,0.8-0.8v-8.1c0-0.5-0.4-0.8-0.8-0.8h-19.1c-0.4,0-0.8,0.4-0.8,0.8v8.1
			c0,0.5,0.4,0.8,0.8,0.8h3.1V191h-13.2v-22.6h2.8c0.4,0,0.8-0.4,0.8-0.8v-8.1c0-0.5-0.4-0.8-0.8-0.8h-18.8c-0.5,0-0.8,0.4-0.8,0.8
			v8.1c0,0.5,0.4,0.8,0.8,0.8h4.8V228h-4.8c-0.5,0-0.8,0.4-0.8,0.8v8.1c0,0.5,0.4,0.8,0.8,0.8h18.8c0.4,0,0.8-0.4,0.8-0.8v-8.1
			c0-0.5-0.4-0.8-0.8-0.8h-2.8v-27.8h13.2V228h-3.1c-0.4,0-0.8,0.4-0.8,0.8v8.1c0,0.5,0.4,0.8,0.8,0.8h19.1c0.4,0,0.8-0.4,0.8-0.8
			v-8.1c0-0.5-0.4-0.8-0.8-0.8H750v-59.6L754.8,168.3L754.8,168.3z"/>
		<path class="st3" d="M944,208.5c0-0.5-0.4-0.8-0.8-0.8h-8.5c-0.4,0-0.8,0.4-0.8,0.8V228H923v-27.6h10.3c0.4,0,0.8-0.4,0.8-0.8
			v-7.8c0-0.5-0.4-0.8-0.8-0.8H923v-22.6h10.4v17.1c0,0.5,0.4,0.8,0.8,0.8h8.5c0.4,0,0.8-0.4,0.8-0.8v-26c0-0.5-0.4-0.8-0.8-0.8h-35
			c-0.5,0-0.8,0.4-0.8,0.8v8.1c0,0.5,0.4,0.8,0.8,0.8h4.6V228h-4.6c-0.5,0-0.8,0.4-0.8,0.8v8.1c0,0.5,0.4,0.8,0.8,0.8h35.6
			c0.5,0,0.8-0.4,0.8-0.8L944,208.5z"/>
		<path class="st3" d="M801.8,228.1c-0.5,0-4-0.2-4-4.2c0-1.7,0-7.7,0-11s0.2-6.5-1.4-10.3c-1.4-3.3-5.6-4.7-5.6-4.7
			s7.7-3.2,7.7-12.7c0-3.4,0-6.6,0-10.9s-1.9-8.7-5.2-12c-4.2-4.2-12.1-3.8-12.1-3.8h-19.7c-0.5,0-0.9,0.4-0.9,0.8v8.1
			c0,0.5,0.5,0.8,0.9,0.8h3.9v59.6h-4.1c-0.4,0-0.7,0.4-0.7,0.8v8.1c0,0.5,0.3,0.8,0.7,0.8h19.1c0.4,0,0.8-0.4,0.8-0.8v-8.1
			c0-0.5-0.4-0.8-0.8-0.8h-4.1v-27.7c0.9,0,1.9,0,3.1,0c5.9,0,7.7,5,7.7,8.4s0,12.4,0,16.2s-0.5,12.9,7.6,12.9c5.3,0,7.2,0,7.2,0
			c0.4,0,0.8-0.3,0.8-0.8V229C802.6,228.5,802.3,228.1,801.8,228.1z M780,168.3c0,0,7,0.4,7,7c0,3,0,5.6,0,9.4
			c0,7.1-11.2,6.1-11.4,6.1v-22.6h4.4V168.3z"/>
		<path class="st3" d="M822.4,157.7c-10,0-17,8.1-17,18.2v44.5c0,10,7,18.2,17,18.2s17-8.1,17-18.2v-44.5
			C839.4,165.8,832.5,157.7,822.4,157.7z M828.3,222.2c0,3.3-2.6,5.9-5.9,5.9c-3.3,0-5.9-2.6-5.9-5.9v-48.8c0-3.3,2.6-5.9,5.9-5.9
			c3.3,0,5.9,2.6,5.9,5.9V222.2z"/>
		<path class="st3" d="M901.5,168.4c0.5,0,0.8-0.4,0.8-0.8v-8.2c0-0.5-0.4-0.8-0.8-0.8h-19.8c-0.4,0-0.8,0.4-0.8,0.8L872,205
			l-8.8-45.8c0-0.5-0.4-0.8-0.8-0.8h-19.1c-0.5,0-0.8,0.4-0.8,0.8v8.2c0,0.5,0.4,0.8,0.8,0.8h5v59.5h-5c-0.5,0-0.8,0.4-0.8,0.8v8.1
			c0,0.5,0.4,0.8,0.8,0.8h17.8c0.4,0,0.8-0.4,0.8-0.8v-8.1c0-0.5-0.4-0.8-0.8-0.8h-3.5v-46.6l11.4,55.5c0,0.5,0.4,0.8,0.8,0.8h4.1
			c0.4,0,0.8-0.4,0.8-0.8l12.8-55.5v46.6h-3.6c-0.4,0-0.8,0.4-0.8,0.8v8.1c0,0.5,0.4,0.8,0.8,0.8h17.6c0.5,0,0.8-0.4,0.8-0.8v-8.1
			c0-0.5-0.4-0.8-0.8-0.8h-4.7v-59.5h4.7V168.4z"/>
		<path class="st3" d="M704,209.5c0-0.7,0-1.7,0-1.7c0-0.5-0.3-0.8-0.8-0.8h-8.6c-0.4,0-0.7,0.3-0.8,0.7l0,0c0,0,0,0.1,0,0.2v14.5
			c0,3.3-2.5,5.9-5.7,5.9c-3.3,0-5.9-2.6-5.9-5.9v-48.8c0-3.3,2.6-5.9,5.9-5.9c2.7,0,5.7,2.3,5.7,4.6c0,2.2,0,13.3,0,13.3l0,0
			c0,0.4,0.4,0.8,0.8,0.8h8.6c0.5,0,0.8-0.4,0.8-0.8v-26.1c0-0.5-0.2-0.8-0.7-0.8h-8.9c-0.4,0-0.7,0.4-0.7,0.8c0,0,0,1.7,0,3.6
			c0,0.5-0.4,0.8-0.8,0.8c-0.3,0-0.6-0.2-0.7-0.4c-1.2-2.1-3.6-5.1-9.9-5.1c-6.2,0-10.9,5.5-10.9,10.3s0,39.9,0,41
			c0,12.3,0.3,15.3,2.9,21c1.8,3.9,6.4,8,13.6,8c7.2,0,11.9-3.5,14.4-8C704.6,226,704,212.5,704,209.5z"/>
	</g>
	<g>
		<path class="st1" d="M371,396.5v-4.9h5.1v-19.2H371v-4.9h37.2v9.2h-8.1v-4.3h-13v6.7h10.5v4.9h-10.5v7.7h13v-4.3h8.1v9.2H371
			V396.5z"/>
		<path class="st1" d="M411.5,372.5v-4.9h20.2v4.9h-4.1v13.1c0,1.8,0.1,3,0.3,3.8c0.2,0.8,0.8,1.4,1.7,1.9c0.9,0.5,2.1,0.8,3.5,0.8
			s2.6-0.2,3.6-0.7s1.6-1.1,1.8-1.8c0.3-0.7,0.4-2.2,0.4-4.3v-12.8h-4.1v-4.9h16.8v4.9h-5.1V387c0,2-0.2,3.4-0.5,4.3s-1,1.8-2.1,2.7
			c-1.1,0.9-2.7,1.6-4.8,2.1c-2.1,0.5-4.5,0.8-7.2,0.8c-3.1,0-5.8-0.3-8-0.9s-3.8-1.4-4.9-2.4s-1.8-2-2.1-3c-0.3-1-0.5-2.7-0.5-5
			v-13.1H411.5z"/>
		<path class="st1" d="M498,391.6v4.9h-12.9l-9.6-12.7h-4.8v7.8h5.3v4.9h-22.1v-4.9h5.8v-19.2h-5.8v-4.9h25.5
			c4.8,0,8.3,0.8,10.4,2.5s3.2,3.5,3.2,5.6c0,3.3-2.4,5.7-7.3,7.2l6.9,8.7h5.4V391.6z M470.7,379.3h3.8c4.6,0,7-1.1,7-3.4
			c0-1.1-0.5-2-1.6-2.5c-1.1-0.6-2.5-0.8-4.4-0.8h-4.8V379.3z"/>
		<path class="st1" d="M522.8,367.2c7.3,0,13,1.4,17.2,4.3s6.3,6.4,6.3,10.6s-2.1,7.7-6.3,10.6s-9.9,4.3-17.2,4.3
			c-7.6,0-13.4-1.5-17.4-4.4c-4.1-3-6.1-6.4-6.1-10.4c0-4.1,2.1-7.6,6.2-10.5C509.8,368.6,515.5,367.2,522.8,367.2z M522.9,372.5
			c-3.2,0-6,0.8-8.3,2.5s-3.4,4.1-3.4,7.3c0,2.8,1.1,5.1,3.3,6.8c2.2,1.7,5,2.6,8.3,2.6c3.2,0,6-0.8,8.3-2.5s3.4-4.1,3.4-7.2
			c0-2.8-1.1-5.1-3.3-6.8C529.1,373.3,526.3,372.5,522.9,372.5z"/>
		<path class="st1" d="M573.5,391.6v4.9h-22.2v-4.9h5.4v-19.2h-5.4v-4.9h22.2c5.2,0,9.2,0.8,12,2.5s4.2,3.9,4.2,6.7
			c0,1.6-0.5,3.1-1.5,4.4s-2.3,2.3-3.8,3s-3.3,1.2-5.3,1.4c-2,0.3-4.5,0.4-7.5,0.4h-4v5.7H573.5z M567.6,381.2h1.6
			c3.8,0,6.2-0.4,7.3-1.3c1.1-0.8,1.6-1.9,1.6-3.1c0-1.1-0.4-2-1.1-2.7c-0.7-0.7-1.6-1.2-2.6-1.4c-1-0.2-2.6-0.3-4.8-0.3h-2.1
			L567.6,381.2L567.6,381.2z"/>
		<path class="st1" d="M592.9,396.5v-4.9h5.1v-19.2h-5.1v-4.9h37.2v9.2H622v-4.3h-13v6.7h10.5v4.9H609v7.7h13v-4.3h8.1v9.2h-37.2
			V396.5z"/>
	</g>
	<g>
		<g>
			<path class="st1" d="M13.6,438.2l4.3,18.4l0.9,5.1l0.9-5l3.6-18.5h7.1l3.8,18.4l1,5.1l1-4.9l4.3-18.6h6.8l-9,32.2h-6.4L28,451.5
				l-1.1-6.2l-1.1,6.2l-3.9,18.8h-6.2l-9.1-32.2h7V438.2z"/>
			<path class="st1" d="M69.9,467.4c-2,2.5-5.1,3.7-9.1,3.7c-4.1,0-7.1-1.2-9.1-3.7s-3-5.5-3-8.9s1-6.4,3-8.9s5.1-3.8,9.1-3.8
				c4.1,0,7.1,1.3,9.1,3.8s3,5.5,3,8.9C72.9,462,71.9,464.9,69.9,467.4z M64.9,464c1-1.3,1.5-3.1,1.5-5.5s-0.5-4.2-1.5-5.5
				s-2.4-1.9-4.2-1.9s-3.2,0.6-4.2,1.9s-1.5,3.1-1.5,5.5s0.5,4.2,1.5,5.5s2.4,1.9,4.2,1.9S63.9,465.3,64.9,464z"/>
			<path class="st1" d="M90.5,446c0.1,0,0.3,0,0.5,0v6.4c-0.4,0-0.7-0.1-1-0.1s-0.6,0-0.7,0c-2.5,0-4.2,0.8-5,2.4
				c-0.5,0.9-0.7,2.3-0.7,4.2v11.4h-6.2v-23.8h5.9v4.2c1-1.6,1.8-2.7,2.5-3.2c1.2-1,2.7-1.5,4.5-1.5C90.3,446,90.4,446,90.5,446z"/>
			<path class="st1" d="M101.1,470.3h-6.2v-32.1h6.2V470.3z"/>
			<path class="st1" d="M119.8,446.9c1.1,0.6,2,1.5,2.7,2.6v-11.3h6.3v32.1h-6V467c-0.9,1.4-1.9,2.4-3,3.1c-1.1,0.6-2.6,1-4.2,1
				c-2.8,0-5.1-1.1-7-3.4c-1.9-2.2-2.9-5.1-2.9-8.6c0-4.1,0.9-7.2,2.8-9.6c1.9-2.3,4.4-3.5,7.5-3.5
				C117.4,446,118.7,446.3,119.8,446.9z M121.3,463.9c0.9-1.3,1.4-3,1.4-5.1c0-2.9-0.7-5-2.2-6.2c-0.9-0.8-1.9-1.1-3.1-1.1
				c-1.8,0-3.2,0.7-4,2.1c-0.9,1.4-1.3,3.1-1.3,5.1c0,2.2,0.4,4,1.3,5.3s2.2,2,3.9,2C119.1,465.8,120.4,465.2,121.3,463.9z"/>
			<path class="st1" d="M134.5,448.2c1.4-0.5,2.4-1.2,2.9-2.3c0.3-0.6,0.4-1.3,0.4-1.9h-3.4v-5.7h6.2v4.6c0,2.2-0.5,3.9-1.6,5.2
				c-1.1,1.3-2.6,2.1-4.5,2.5L134.5,448.2L134.5,448.2z"/>
			<path class="st1" d="M151.6,462.7c0.1,1.1,0.4,1.9,0.8,2.3c0.8,0.8,2.2,1.2,4.3,1.2c1.2,0,2.2-0.2,2.9-0.5
				c0.7-0.4,1.1-0.9,1.1-1.6s-0.3-1.2-0.9-1.6c-0.6-0.4-2.7-1-6.5-1.9c-2.7-0.7-4.6-1.5-5.7-2.5c-1.1-1-1.7-2.4-1.7-4.3
				c0-2.2,0.9-4.1,2.6-5.7c1.7-1.6,4.1-2.4,7.3-2.4c3,0,5.4,0.6,7.3,1.8c1.9,1.2,2.9,3.2,3.2,6.2h-6.2c-0.1-0.8-0.3-1.4-0.7-1.9
				c-0.7-0.8-1.8-1.3-3.5-1.3c-1.3,0-2.3,0.2-2.9,0.6c-0.6,0.4-0.9,0.9-0.9,1.5c0,0.7,0.3,1.2,0.9,1.5c0.6,0.3,2.8,0.9,6.5,1.7
				c2.5,0.6,4.3,1.5,5.6,2.6c1.2,1.2,1.8,2.7,1.8,4.5c0,2.3-0.9,4.3-2.6,5.8c-1.8,1.5-4.5,2.2-8.1,2.2c-3.7,0-6.5-0.8-8.3-2.4
				s-2.7-3.6-2.7-6h6.4V462.7z"/>
			<path class="st1" d="M184.6,438.2h22.9v5.6h-16.2v7.4h14.2v5.6h-14.2v13.5h-6.7V438.2z"/>
			<path class="st1" d="M217.7,443.7h-6.3V438h6.3V443.7z M211.4,446.5h6.3v23.8h-6.3V446.5z"/>
			<path class="st1" d="M243,447.9c1.6,1.3,2.3,3.4,2.3,6.4v16h-6.4v-14.4c0-1.2-0.2-2.2-0.5-2.9c-0.6-1.2-1.8-1.8-3.5-1.8
				c-2.1,0-3.5,0.9-4.3,2.7c-0.4,0.9-0.6,2.1-0.6,3.6v12.9h-6.2v-23.7h6v3.5c0.8-1.2,1.6-2.1,2.3-2.6c1.3-1,2.9-1.4,4.8-1.4
				C239.4,446,241.4,446.6,243,447.9z"/>
			<path class="st1" d="M266.5,447c1.7,0.7,3,1.9,4.1,3.5c1,1.4,1.6,3.1,1.9,4.9c0.2,1.1,0.2,2.7,0.2,4.7h-17.3
				c0.1,2.4,0.9,4.1,2.5,5c0.9,0.6,2.1,0.9,3.4,0.9c1.4,0,2.6-0.4,3.4-1.1c0.5-0.4,0.9-0.9,1.3-1.6h6.3c-0.2,1.4-0.9,2.8-2.3,4.3
				c-2.1,2.3-5.1,3.5-8.9,3.5c-3.2,0-5.9-1-8.4-2.9c-2.4-2-3.6-5.1-3.6-9.5c0-4.1,1.1-7.3,3.3-9.5s5-3.3,8.5-3.3
				C263,445.9,264.9,446.3,266.5,447z M257.3,452.4c-0.9,0.9-1.4,2.1-1.7,3.6h10.7c-0.1-1.6-0.7-2.8-1.7-3.7c-1-0.8-2.2-1.3-3.7-1.3
				C259.4,451.1,258.1,451.5,257.3,452.4z"/>
			<path class="st1" d="M280.7,462.7c0.1,1.1,0.4,1.9,0.8,2.3c0.8,0.8,2.2,1.2,4.3,1.2c1.2,0,2.2-0.2,2.9-0.5
				c0.7-0.4,1.1-0.9,1.1-1.6s-0.3-1.2-0.9-1.6s-2.7-1-6.5-1.9c-2.7-0.7-4.6-1.5-5.7-2.5s-1.7-2.4-1.7-4.3c0-2.2,0.9-4.1,2.6-5.7
				s4.1-2.4,7.3-2.4c3,0,5.4,0.6,7.3,1.8c1.9,1.2,2.9,3.2,3.2,6.2h-6.2c-0.1-0.8-0.3-1.4-0.7-1.9c-0.7-0.8-1.8-1.3-3.5-1.3
				c-1.3,0-2.3,0.2-2.9,0.6s-0.9,0.9-0.9,1.5c0,0.7,0.3,1.2,0.9,1.5s2.8,0.9,6.5,1.7c2.5,0.6,4.3,1.5,5.6,2.6
				c1.2,1.2,1.8,2.7,1.8,4.5c0,2.3-0.9,4.3-2.6,5.8c-1.8,1.5-4.5,2.2-8.1,2.2c-3.7,0-6.5-0.8-8.3-2.4s-2.7-3.6-2.7-6h6.4V462.7z"/>
			<path class="st1" d="M298.3,451.1v-4.4h3.3V440h6.1v6.7h3.9v4.4h-3.9v12.6c0,1,0.1,1.6,0.4,1.8c0.2,0.2,1,0.4,2.3,0.4
				c0.2,0,0.4,0,0.6,0s0.4,0,0.6-0.1v4.7l-2.9,0.2c-2.9,0.1-4.9-0.4-6-1.5c-0.7-0.7-1-1.8-1-3.3v-14.7h-3.4V451.1z"/>
			<path class="st1" d="M350.1,456.4c-1.9,1.6-4.6,2.4-8.1,2.4h-6.7v11.5h-6.7v-32.2h13.8c3.2,0,5.7,0.8,7.6,2.5s2.8,4.2,2.8,7.7
				C353,452.2,352,454.9,350.1,456.4z M345,444.8c-0.9-0.7-2-1.1-3.6-1.1h-6.1v9.5h6.1c1.5,0,2.7-0.4,3.6-1.2c0.9-0.8,1.3-2,1.3-3.7
				C346.3,446.7,345.9,445.5,345,444.8z"/>
			<path class="st1" d="M371,446c0.1,0,0.3,0,0.5,0v6.4c-0.4,0-0.7-0.1-1-0.1s-0.6,0-0.7,0c-2.5,0-4.2,0.8-5,2.4
				c-0.5,0.9-0.7,2.3-0.7,4.2v11.4h-6.2v-23.8h5.9v4.2c1-1.6,1.8-2.7,2.5-3.2c1.2-1,2.7-1.5,4.5-1.5C370.8,446,370.9,446,371,446z"
				/>
			<path class="st1" d="M395.1,467.4c-2,2.5-5.1,3.7-9.1,3.7c-4.1,0-7.1-1.2-9.1-3.7s-3-5.5-3-8.9s1-6.4,3-8.9s5.1-3.8,9.1-3.8
				c4.1,0,7.1,1.3,9.1,3.8s3,5.5,3,8.9C398.1,462,397.1,464.9,395.1,467.4z M390.1,464c1-1.3,1.5-3.1,1.5-5.5s-0.5-4.2-1.5-5.5
				s-2.4-1.9-4.2-1.9c-1.8,0-3.2,0.6-4.2,1.9s-1.5,3.1-1.5,5.5s0.5,4.2,1.5,5.5s2.4,1.9,4.2,1.9S389.1,465.3,390.1,464z"/>
			<path class="st1" d="M415.2,446.9c1.1,0.6,2,1.5,2.7,2.6v-11.3h6.3v32.1h-6V467c-0.9,1.4-1.9,2.4-3,3.1c-1.1,0.6-2.5,1-4.2,1
				c-2.8,0-5.1-1.1-7-3.4c-1.9-2.2-2.9-5.1-2.9-8.6c0-4.1,0.9-7.2,2.8-9.6c1.9-2.3,4.4-3.5,7.5-3.5C412.8,446,414,446.3,415.2,446.9
				z M416.7,463.9c0.9-1.3,1.4-3,1.4-5.1c0-2.9-0.7-5-2.2-6.2c-0.9-0.8-1.9-1.1-3.1-1.1c-1.8,0-3.2,0.7-4,2.1
				c-0.9,1.4-1.3,3.1-1.3,5.1c0,2.2,0.4,4,1.3,5.3s2.2,2,3.9,2C414.4,465.8,415.8,465.2,416.7,463.9z"/>
			<path class="st1" d="M436,446.5v14.4c0,1.4,0.2,2.4,0.5,3.1c0.6,1.2,1.7,1.8,3.3,1.8c2.1,0,3.6-0.9,4.4-2.6
				c0.4-0.9,0.6-2.2,0.6-3.7v-13h6.3v23.8h-6V467c-0.1,0.1-0.2,0.3-0.4,0.7c-0.2,0.4-0.5,0.7-0.8,1c-1,0.9-1.9,1.5-2.8,1.8
				s-2,0.5-3.2,0.5c-3.5,0-5.9-1.3-7.1-3.8c-0.7-1.4-1-3.5-1-6.2v-14.3h6.2V446.5z"/>
			<path class="st1" d="M471.3,455.1c-0.1-0.9-0.4-1.7-0.9-2.4c-0.7-1-1.8-1.4-3.2-1.4c-2.1,0-3.5,1-4.3,3.1
				c-0.4,1.1-0.6,2.6-0.6,4.4c0,1.7,0.2,3.1,0.6,4.2c0.7,2,2.1,3,4.2,3c1.4,0,2.5-0.4,3.1-1.2c0.6-0.8,1-1.8,1.1-3.1h6.3
				c-0.1,1.9-0.8,3.7-2,5.4c-1.9,2.7-4.8,4.1-8.6,4.1c-3.8,0-6.6-1.1-8.4-3.4s-2.7-5.2-2.7-8.8c0-4.1,1-7.2,3-9.5s4.7-3.4,8.2-3.4
				c3,0,5.4,0.7,7.3,2s3,3.7,3.4,7.1h-6.5V455.1z"/>
			<path class="st1" d="M479.5,451.1v-4.4h3.3V440h6.1v6.7h3.9v4.4H489v12.6c0,1,0.1,1.6,0.4,1.8c0.2,0.2,1,0.4,2.3,0.4
				c0.2,0,0.4,0,0.6,0s0.4,0,0.6-0.1v4.7l-2.9,0.2c-2.9,0.1-4.9-0.4-6-1.5c-0.7-0.7-1-1.8-1-3.3v-14.7h-3.5V451.1z"/>
			<path class="st1" d="M501.6,462.7c0.1,1.1,0.4,1.9,0.8,2.3c0.8,0.8,2.2,1.2,4.3,1.2c1.2,0,2.2-0.2,2.9-0.5
				c0.7-0.4,1.1-0.9,1.1-1.6s-0.3-1.2-0.9-1.6s-2.7-1-6.5-1.9c-2.7-0.7-4.6-1.5-5.7-2.5s-1.7-2.4-1.7-4.3c0-2.2,0.9-4.1,2.6-5.7
				s4.1-2.4,7.3-2.4c3,0,5.4,0.6,7.3,1.8c1.9,1.2,2.9,3.2,3.2,6.2h-6.2c-0.1-0.8-0.3-1.4-0.7-1.9c-0.7-0.8-1.8-1.3-3.5-1.3
				c-1.3,0-2.3,0.2-2.9,0.6s-0.9,0.9-0.9,1.5c0,0.7,0.3,1.2,0.9,1.5s2.8,0.9,6.5,1.7c2.5,0.6,4.3,1.5,5.6,2.6
				c1.2,1.2,1.8,2.7,1.8,4.5c0,2.3-0.9,4.3-2.6,5.8c-1.8,1.5-4.5,2.2-8.1,2.2c-3.7,0-6.5-0.8-8.3-2.4s-2.7-3.6-2.7-6h6.4V462.7z"/>
			<path class="st1" d="M534.6,438.2h22.9v5.6h-16.2v7.4h14.2v5.6h-14.2v13.5h-6.7V438.2z"/>
			<path class="st1" d="M581.2,467.4c-2,2.5-5.1,3.7-9.1,3.7c-4.1,0-7.1-1.2-9.1-3.7s-3-5.5-3-8.9s1-6.4,3-8.9s5.1-3.8,9.1-3.8
				c4.1,0,7.1,1.3,9.1,3.8s3,5.5,3,8.9C584.2,462,583.2,464.9,581.2,467.4z M576.2,464c1-1.3,1.5-3.1,1.5-5.5s-0.5-4.2-1.5-5.5
				s-2.4-1.9-4.2-1.9s-3.2,0.6-4.2,1.9s-1.5,3.1-1.5,5.5s0.5,4.2,1.5,5.5s2.4,1.9,4.2,1.9C573.9,465.9,575.2,465.3,576.2,464z"/>
			<path class="st1" d="M601.8,446c0.1,0,0.3,0,0.5,0v6.4c-0.4,0-0.7-0.1-1-0.1s-0.6,0-0.7,0c-2.5,0-4.2,0.8-5,2.4
				c-0.5,0.9-0.7,2.3-0.7,4.2v11.4h-6.2v-23.8h5.9v4.2c1-1.6,1.8-2.7,2.5-3.2c1.2-1,2.7-1.5,4.5-1.5C601.6,446,601.7,446,601.8,446z
				"/>
			<path class="st1" d="M618.9,470.3v-32.2h6.7v12.2h12.5v-12.2h6.7v32.2h-6.7V456h-12.5v14.3H618.9z"/>
			<path class="st1" d="M660.1,455.9c1.2-0.1,2-0.3,2.5-0.5c0.9-0.4,1.3-1,1.3-1.8c0-1-0.3-1.6-1-2s-1.7-0.6-3-0.6
				c-1.5,0-2.5,0.4-3.2,1.1c-0.4,0.5-0.7,1.3-0.9,2.2h-6c0.1-2.1,0.7-3.8,1.8-5.1c1.6-2.1,4.5-3.1,8.5-3.1c2.6,0,4.9,0.5,7,1.5
				c2,1,3,3,3,5.8v10.9c0,0.8,0,1.7,0,2.8c0,0.8,0.2,1.4,0.4,1.6c0.2,0.3,0.5,0.5,0.9,0.7v0.9h-6.8c-0.2-0.5-0.3-0.9-0.4-1.4
				c-0.1-0.4-0.1-0.9-0.2-1.4c-0.9,0.9-1.9,1.7-3,2.4c-1.3,0.8-2.9,1.2-4.6,1.2c-2.2,0-3.9-0.6-5.4-1.8c-1.4-1.2-2.1-3-2.1-5.2
				c0-2.9,1.1-5,3.4-6.3c1.2-0.7,3.1-1.2,5.5-1.5L660.1,455.9z M663.9,458.8c-0.4,0.2-0.8,0.4-1.2,0.6s-1,0.3-1.7,0.4l-1.4,0.3
				c-1.3,0.2-2.3,0.5-2.8,0.9c-1,0.6-1.5,1.4-1.5,2.6c0,1.1,0.3,1.8,0.9,2.3c0.6,0.5,1.3,0.7,2.2,0.7c1.4,0,2.6-0.4,3.7-1.2
				c1.1-0.8,1.7-2.2,1.8-4.3V458.8z"/>
			<path class="st1" d="M688.7,446c0.1,0,0.3,0,0.5,0v6.4c-0.4,0-0.7-0.1-1-0.1s-0.6,0-0.7,0c-2.5,0-4.2,0.8-5,2.4
				c-0.5,0.9-0.7,2.3-0.7,4.2v11.4h-6.2v-23.8h5.9v4.2c1-1.6,1.8-2.7,2.5-3.2c1.2-1,2.7-1.5,4.5-1.5C688.5,446,688.6,446,688.7,446z
				"/>
			<path class="st1" d="M699.3,470.3H693v-32.1h6.2L699.3,470.3L699.3,470.3z"/>
			<path class="st1" d="M720.8,447c1.7,0.7,3,1.9,4.1,3.5c1,1.4,1.6,3.1,1.9,4.9c0.2,1.1,0.2,2.7,0.2,4.7h-17.3
				c0.1,2.4,0.9,4.1,2.5,5c0.9,0.6,2.1,0.9,3.4,0.9c1.4,0,2.6-0.4,3.4-1.1c0.5-0.4,0.9-0.9,1.3-1.6h6.3c-0.2,1.4-0.9,2.8-2.3,4.3
				c-2.1,2.3-5.1,3.5-8.9,3.5c-3.2,0-5.9-1-8.4-2.9c-2.4-2-3.6-5.1-3.6-9.5c0-4.1,1.1-7.3,3.3-9.5s5-3.3,8.5-3.3
				C717.3,445.9,719.2,446.3,720.8,447z M711.5,452.4c-0.9,0.9-1.4,2.1-1.7,3.6h10.7c-0.1-1.6-0.7-2.8-1.7-3.7
				c-1-0.8-2.2-1.3-3.7-1.3C713.6,451.1,712.4,451.5,711.5,452.4z"/>
			<path class="st1" d="M731.1,474.9h0.8c0.6,0,1.2,0,1.7-0.1c0.6-0.1,1-0.2,1.4-0.5s0.7-0.8,1-1.6c0.3-0.8,0.4-1.3,0.4-1.5
				l-8.7-24.8h6.9l5.2,17.6l4.9-17.6h6.6l-8.2,23.4c-1.6,4.5-2.8,7.3-3.7,8.4s-2.8,1.6-5.5,1.6c-0.6,0-1,0-1.3,0s-0.8,0-1.5-0.1
				L731.1,474.9L731.1,474.9z"/>
			<path class="st1" d="M753.2,455h12.2v5.9h-12.2V455z"/>
			<path class="st1" d="M789.2,438.9c2.3,0.7,4.1,2.1,5.5,4.1c1.1,1.6,1.9,3.3,2.3,5.2c0.4,1.9,0.6,3.6,0.6,5.3
				c0,4.3-0.9,7.9-2.6,10.9c-2.3,4-5.9,6-10.8,6h-13.9v-32.2h13.9C786.2,438.2,787.9,438.4,789.2,438.9z M776.9,443.7v21h6.2
				c3.2,0,5.4-1.6,6.7-4.7c0.7-1.7,1-3.8,1-6.1c0-3.3-0.5-5.8-1.5-7.5c-1-1.8-3.1-2.6-6.1-2.6L776.9,443.7L776.9,443.7z"/>
			<path class="st1" d="M811.6,455.9c1.2-0.1,2-0.3,2.5-0.5c0.9-0.4,1.3-1,1.3-1.8c0-1-0.3-1.6-1-2s-1.7-0.6-3-0.6
				c-1.5,0-2.5,0.4-3.2,1.1c-0.4,0.5-0.7,1.3-0.9,2.2h-6c0.1-2.1,0.7-3.8,1.8-5.1c1.6-2.1,4.5-3.1,8.5-3.1c2.6,0,4.9,0.5,7,1.5
				c2,1,3,3,3,5.8v10.9c0,0.8,0,1.7,0,2.8c0,0.8,0.2,1.4,0.4,1.6c0.2,0.3,0.5,0.5,0.9,0.7v0.9h-6.8c-0.2-0.5-0.3-0.9-0.4-1.4
				c-0.1-0.4-0.1-0.9-0.2-1.4c-0.9,0.9-1.9,1.7-3,2.4c-1.3,0.8-2.9,1.2-4.6,1.2c-2.2,0-4-0.6-5.4-1.8c-1.4-1.2-2.1-3-2.1-5.2
				c0-2.9,1.1-5,3.4-6.3c1.2-0.7,3.1-1.2,5.5-1.5L811.6,455.9z M815.4,458.8c-0.4,0.2-0.8,0.4-1.2,0.6s-1,0.3-1.7,0.4l-1.4,0.3
				c-1.3,0.2-2.3,0.5-2.8,0.9c-1,0.6-1.5,1.4-1.5,2.6c0,1.1,0.3,1.8,0.9,2.3c0.6,0.5,1.3,0.7,2.2,0.7c1.4,0,2.6-0.4,3.7-1.2
				c1.1-0.8,1.7-2.2,1.8-4.3V458.8z"/>
			<path class="st1" d="M841.7,446.5h6.7l-8.6,23.8h-6.6l-8.5-23.8h7l5,17.6L841.7,446.5z"/>
			<path class="st1" d="M858.2,443.7h-6.3V438h6.3V443.7z M851.9,446.5h6.3v23.8h-6.3V446.5z"/>
			<path class="st1" d="M876.9,446.9c1.1,0.6,2,1.5,2.7,2.6v-11.3h6.3v32.1h-6V467c-0.9,1.4-1.9,2.4-3,3.1c-1.1,0.6-2.6,1-4.2,1
				c-2.8,0-5.1-1.1-7-3.4c-1.9-2.2-2.9-5.1-2.9-8.6c0-4.1,0.9-7.2,2.8-9.6c1.9-2.3,4.4-3.5,7.5-3.5
				C874.5,446,875.8,446.3,876.9,446.9z M878.4,463.9c0.9-1.3,1.4-3,1.4-5.1c0-2.9-0.7-5-2.2-6.2c-0.9-0.8-2-1.1-3.1-1.1
				c-1.8,0-3.2,0.7-4,2.1c-0.9,1.4-1.3,3.1-1.3,5.1c0,2.2,0.4,4,1.3,5.3c0.9,1.3,2.2,2,3.9,2C876.2,465.8,877.5,465.2,878.4,463.9z"
				/>
			<path class="st1" d="M896.4,462.7c0.1,1.1,0.4,1.9,0.9,2.3c0.8,0.8,2.2,1.2,4.3,1.2c1.2,0,2.2-0.2,2.9-0.5
				c0.7-0.4,1.1-0.9,1.1-1.6s-0.3-1.2-0.9-1.6c-0.6-0.4-2.7-1-6.5-1.9c-2.7-0.7-4.6-1.5-5.7-2.5c-1.1-1-1.6-2.4-1.6-4.3
				c0-2.2,0.9-4.1,2.6-5.7c1.7-1.6,4.1-2.4,7.3-2.4c3,0,5.4,0.6,7.3,1.8c1.9,1.2,2.9,3.2,3.2,6.2h-6.2c-0.1-0.8-0.3-1.4-0.7-1.9
				c-0.7-0.8-1.8-1.3-3.5-1.3c-1.4,0-2.3,0.2-2.9,0.6c-0.6,0.4-0.9,0.9-0.9,1.5c0,0.7,0.3,1.2,0.9,1.5c0.6,0.3,2.8,0.9,6.5,1.7
				c2.5,0.6,4.3,1.5,5.6,2.6c1.2,1.2,1.8,2.7,1.8,4.5c0,2.3-0.9,4.3-2.6,5.8c-1.8,1.5-4.5,2.2-8.1,2.2c-3.7,0-6.5-0.8-8.3-2.4
				s-2.7-3.6-2.7-6h6.2V462.7z"/>
			<path class="st1" d="M936.2,467.4c-2,2.5-5.1,3.7-9.1,3.7c-4.1,0-7.1-1.2-9.1-3.7s-3-5.5-3-8.9s1-6.4,3-8.9s5.1-3.8,9.1-3.8
				c4.1,0,7.1,1.3,9.1,3.8s3,5.5,3,8.9C939.2,462,938.2,464.9,936.2,467.4z M931.3,464c1-1.3,1.5-3.1,1.5-5.5s-0.5-4.2-1.5-5.5
				s-2.4-1.9-4.2-1.9s-3.2,0.6-4.2,1.9s-1.5,3.1-1.5,5.5s0.5,4.2,1.5,5.5s2.4,1.9,4.2,1.9C928.9,465.9,930.3,465.3,931.3,464z"/>
			<path class="st1" d="M962.9,447.9c1.6,1.3,2.3,3.4,2.3,6.4v16h-6.4v-14.4c0-1.2-0.2-2.2-0.5-2.9c-0.6-1.2-1.8-1.8-3.5-1.8
				c-2.1,0-3.5,0.9-4.3,2.7c-0.4,0.9-0.6,2.1-0.6,3.6v12.9h-6.2v-23.7h6v3.5c0.8-1.2,1.5-2.1,2.3-2.6c1.3-1,2.9-1.4,4.8-1.4
				C959.3,446,961.3,446.6,962.9,447.9z"/>
			<path class="st1" d="M975.8,462.7c0.1,1.1,0.4,1.9,0.8,2.3c0.8,0.8,2.2,1.2,4.3,1.2c1.2,0,2.2-0.2,2.9-0.5
				c0.7-0.4,1.1-0.9,1.1-1.6s-0.3-1.2-0.9-1.6c-0.6-0.4-2.7-1-6.5-1.9c-2.7-0.7-4.6-1.5-5.7-2.5c-1.1-1-1.7-2.4-1.7-4.3
				c0-2.2,0.9-4.1,2.6-5.7c1.7-1.6,4.1-2.4,7.3-2.4c3,0,5.4,0.6,7.3,1.8c1.9,1.2,2.9,3.2,3.2,6.2h-6.2c-0.1-0.8-0.3-1.4-0.7-1.9
				c-0.7-0.8-1.8-1.3-3.5-1.3c-1.3,0-2.3,0.2-2.9,0.6c-0.6,0.4-0.9,0.9-0.9,1.5c0,0.7,0.3,1.2,0.9,1.5c0.6,0.3,2.8,0.9,6.5,1.7
				c2.5,0.6,4.3,1.5,5.5,2.6c1.2,1.2,1.8,2.7,1.8,4.5c0,2.3-0.9,4.3-2.6,5.8c-1.8,1.5-4.5,2.2-8.1,2.2c-3.7,0-6.5-0.8-8.3-2.4
				s-2.7-3.6-2.7-6h6.5V462.7z"/>
		</g>
	</g>
</g>
</svg>
