<?xml version="1.0" encoding="utf-8"?>
<!-- Generator: Adobe Illustrator 22.0.1, SVG Export Plug-In . SVG Version: 6.00 Build 0)  -->
<svg version="1.1" xmlns="http://www.w3.org/2000/svg" xmlns:xlink="http://www.w3.org/1999/xlink" x="0px" y="0px"
	 viewBox="0 0 5669.3 2823.8" style="enable-background:new 0 0 5669.3 2823.8;" xml:space="preserve">
<style type="text/css">
	.st0{fill:transparent;}
	.st1{fill:#FFFFFF;}
</style>
<g id="Calque_3">
	<rect class="st0" width="5669.3" height="2823.8"/>
</g>
<g id="Calque_1">
	<g>
		<g>
			<g>
				<g>
					<g>
						<path class="st1" d="M3933.3,760c0,132.2-56.5,253-169.4,362.3c-113,109.4-236.2,164.1-369.6,164.1h-540.8
							c-25.2,0-43.9,13.9-55.9,41.4c-3.7,8.5-9.7,33.7-18,75.7h1045.5l-73.9,414.7H2219l81.1-456.1c21.6-119,85.6-224.4,191.9-316.4
							c106.4-91.9,219.7-137.9,339.8-137.9h540.8c16.9,0,31.9-6.6,45.1-19.8c13.3-13.2,19.9-28.2,19.9-45.1
							c0-34.9-15.1-52.3-45.1-52.3h-901.4l73.9-414.7h991.5c105.7,0,195,37.3,267.7,111.8C3897,562.4,3933.3,653,3933.3,760z"/>
					</g>
				</g>
				<path class="st1" d="M5125.4,1800.1c0,22.9-14.3,42.7-31.3,42.7h-230.6c-19.9,0-34.2-17.1-34.2-36.9v-227.8
					c-17-102.4-119.4-179.2-219-179.2h-173.7c-20,0-37-17.2-37-37.2V1137c0-19.9,17-34.1,37-34.1h526.5
					c108.1,0,207.8-94,207.8-213.6c0-113.6-105.3-219.1-207.8-219.1h-432.5c-114,0-207.8,99.6-207.8,204.9v930.7
					c0,19.8-17.1,36.9-37,36.9h-221.9c-19.9,0-37-17.1-37-36.9V875.1c0-267.5,227.7-503.7,503.8-503.7h432.5
					c287.4,0,500.9,264.6,500.9,517.8c0,241.9-173.6,449.7-401.3,498c22.8,25.6,62.7,96.9,62.7,153.9V1800.1z"/>
				<path class="st1" d="M783.4,1865.4c-28.1,0-52.2-22.2-52.2-53.3v-351.3c0-31.2,24.1-53.3,52.2-53.3h746.9
					c152.6,0,293.1-146.7,293.1-333.5c0-182.4-148.5-346.9-293.1-346.9H916c-160.6,0-293.1,155.7-293.1,320.1v1458.4
					c0,31.3-24.1,57.9-52.2,57.9H257.4c-28.1,0-52.2-26.6-52.2-57.9V1047.2c0-417.9,321.2-786.9,710.7-786.9h614.3
					c405.6,0,706.7,417.9,706.7,813.7c0,431.3-321.2,791.5-706.7,791.5H783.4L783.4,1865.4z"/>
			</g>
		</g>
		<g>
			<g>
				<path class="st1" d="M903.8,2037.3c20.5,0,36.8,10.5,48.9,31.6c12,21.1,18,49.2,18,84.5c0,37-6.2,65.3-18.7,84.8
					c-12.5,19.5-30.7,29.3-54.6,29.3H777.8v141.8h-33.3v-372H903.8z M898,2212c25.7,0,38.6-19.2,38.6-57.5
					c0-41.1-13.6-61.7-40.8-61.7h-118V2212H898z"/>
				<path class="st1" d="M1237,2409.3h-38.8l-54.4-141.8h-101.5v141.8H1009v-372h158.5c21.1,0,37.7,10.5,49.7,31.6
					c12,21.1,18,49.6,18,85.6c0,31.5-4.9,56.9-14.7,76c-9.1,17.8-21.6,29.1-37.5,33.9L1237,2409.3z M1162.6,2212
					c25.7,0,38.6-19.2,38.6-57.5c0-41.1-13.9-61.7-41.6-61.7h-117.2V2212H1162.6z"/>
				<path class="st1" d="M1536.5,2222.8c0,61-13.5,110.3-40.5,148c-23.7,32.9-53.1,49.3-88.3,49.3c-35.5,0-65.1-16.6-88.8-49.8
					c-27-37.7-40.5-86.8-40.5-147.5c0-59.6,13.7-108.6,41.1-147c24.1-33.6,53.5-50.4,88.3-50.4c35,0,64.3,16.8,88,50.4
					C1522.9,2114.2,1536.5,2163.1,1536.5,2222.8z M1501.8,2222.8c0-43.5-10-78.8-30-105.8c-17.2-23.3-38.6-34.9-64.1-34.9
					c-27.9,0-50.7,13.3-68.3,39.8c-17.6,26.5-26.4,60.2-26.4,101c0,42.1,8.6,76.1,25.8,102c17.2,25.9,40.2,38.8,68.8,38.8
					c28.5,0,51.3-13,68.4-39.1C1493.2,2298.5,1501.8,2264.5,1501.8,2222.8z"/>
				<path class="st1" d="M1827.7,2122l-30.3,20c-20.4-40.1-48.9-60.1-85.5-60.1c-27.8,0-50.4,13.2-67.9,39.6
					c-17.5,26.4-26.2,59.9-26.2,100.7c0,42.1,8.6,76.1,26,102c17.3,25.9,40.7,38.8,70.1,38.8c35.5,0,63.5-20.4,83.8-61.1l28.6,29.3
					c-14.4,31.2-30.8,53.7-49,67.6c-18.2,13.9-40,20.8-65.4,20.8c-35.5,0-65.1-16.4-88.6-49.3c-26.8-37.7-40.3-87-40.3-148
					c0-59.9,13.6-108.9,40.8-147c23.7-33.2,53-49.8,88-49.8C1762.3,2025.4,1800.9,2057.6,1827.7,2122z"/>
				<path class="st1" d="M2131.1,2222.8c0,61-13.5,110.3-40.5,148c-23.7,32.9-53.1,49.3-88.3,49.3c-35.5,0-65.1-16.6-88.8-49.8
					c-27-37.7-40.5-86.8-40.5-147.5c0-59.6,13.7-108.6,41.1-147c24.1-33.6,53.5-50.4,88.3-50.4c35,0,64.3,16.8,88,50.4
					C2117.5,2114.2,2131.1,2163.1,2131.1,2222.8z M2096.4,2222.8c0-43.5-10-78.8-30-105.8c-17.2-23.3-38.6-34.9-64.1-34.9
					c-27.9,0-50.7,13.3-68.3,39.8c-17.6,26.5-26.4,60.2-26.4,101c0,42.1,8.6,76.1,25.8,102c17.2,25.9,40.2,38.8,68.8,38.8
					c28.5,0,51.3-13,68.4-39.1C2087.9,2298.5,2096.4,2264.5,2096.4,2222.8z"/>
				<path class="st1" d="M2416,2409.3h-41.4l-153.4-305.1v305.1h-33.3v-372h41.4l153.5,305.2v-305.2h33.3V2409.3z"/>
				<path class="st1" d="M2717.7,2122l-30.3,20c-20.4-40.1-48.9-60.1-85.5-60.1c-27.8,0-50.4,13.2-67.9,39.6
					c-17.5,26.4-26.2,59.9-26.2,100.7c0,42.1,8.6,76.1,26,102c17.3,25.9,40.7,38.8,70.1,38.8c35.5,0,63.5-20.4,83.8-61.1l28.6,29.3
					c-14.4,31.2-30.8,53.7-49,67.6c-18.2,13.9-40,20.8-65.4,20.8c-35.5,0-65.1-16.4-88.6-49.3c-26.8-37.7-40.3-87-40.3-148
					c0-59.9,13.6-108.9,40.8-147c23.7-33.2,53-49.8,88-49.8C2652.3,2025.4,2690.9,2057.6,2717.7,2122z"/>
				<path class="st1" d="M2983.9,2409.3h-210.4v-372h202.7v55.5h-169.3v95.6h117.7v55.5h-117.7v110h177.1V2409.3z"/>
				<path class="st1" d="M3193.5,2037.3c20.5,0,36.8,10.5,48.9,31.6c12,21.1,18,49.2,18,84.5c0,37-6.2,65.3-18.7,84.8
					c-12.5,19.5-30.7,29.3-54.6,29.3h-119.6v141.8h-33.3v-372H3193.5z M3187.7,2212c25.7,0,38.6-19.2,38.6-57.5
					c0-41.1-13.6-61.7-40.8-61.7h-118V2212H3187.7z"/>
				<path class="st1" d="M3496.1,2092.8h-96.1v316.5h-33.3v-316.5h-96.1v-55.5h225.4V2092.8z"/>
				<path class="st1" d="M3797.9,2409.3h-204c2.2-92.3,30.1-153.9,83.6-184.8c1.1-0.7,13.2-6.9,36.4-18.5
					c12.8-6.5,22.3-13,28.6-19.6c9.6-9.9,14.4-23.3,14.4-40.1c0-17.5-4.8-31.7-14.3-42.5c-9.5-10.8-22.8-16.2-39.8-16.2
					c-28.9,0-55.1,17.5-78.6,52.4l-21.1-41.3c30.7-44.4,64.1-66.6,100.2-66.6c26.5,0,48,11.2,64.7,33.5c16.7,22.3,25,50.7,25,85
					c0,49.1-17.7,83-53,101.6c-13.1,5.5-32.5,14.9-58,28.3c-24.1,15.5-40.3,39.9-48.6,73.2h164.6V2409.3z"/>
				<path class="st1" d="M4162.4,2409.3h-38.8l-54.4-141.8h-101.5v141.8h-33.3v-372H4093c21.1,0,37.7,10.5,49.7,31.6
					c12,21.1,18,49.6,18,85.6c0,31.5-4.9,56.9-14.7,76c-9.1,17.8-21.6,29.1-37.5,33.9L4162.4,2409.3z M4088,2212
					c25.7,0,38.6-19.2,38.6-57.5c0-41.1-13.9-61.7-41.6-61.7h-117.2V2212H4088z"/>
				<path class="st1" d="M4461.9,2222.8c0,61-13.5,110.3-40.5,148c-23.7,32.9-53.1,49.3-88.3,49.3c-35.5,0-65.1-16.6-88.8-49.8
					c-27-37.7-40.5-86.8-40.5-147.5c0-59.6,13.7-108.6,41.1-147c24.1-33.6,53.5-50.4,88.3-50.4c35,0,64.3,16.8,88,50.4
					C4448.3,2114.2,4461.9,2163.1,4461.9,2222.8z M4427.2,2222.8c0-43.5-10-78.8-30-105.8c-17.2-23.3-38.6-34.9-64.1-34.9
					c-27.9,0-50.7,13.3-68.3,39.8c-17.6,26.5-26.4,60.2-26.4,101c0,42.1,8.6,76.1,25.8,102c17.2,25.9,40.2,38.8,68.8,38.8
					c28.5,0,51.3-13,68.4-39.1C4418.7,2298.5,4427.2,2264.5,4427.2,2222.8z"/>
				<path class="st1" d="M4744.8,2289c0,38.7-10.2,70.1-30.5,94c-20.7,25-48.4,37.5-83,37.5c-34.6,0-62.5-12.5-83.6-37.5
					c-20.4-24.3-30.5-55.7-30.5-94v-251.8h33.3v236.9c0,29.1,6.9,51.4,20.7,66.8c13.8,15.4,33.8,23.1,60.1,23.1
					c26.3,0,46.2-7.7,59.8-23.1c13.6-15.4,20.4-37.7,20.4-66.8v-236.9h33.3V2289z"/>
				<path class="st1" d="M5021,2409.3h-210.4v-372h202.7v55.5h-169.3v95.6h117.7v55.5h-117.7v110H5021V2409.3z"/>
				<path class="st1" d="M5247.6,2124.6c-29.8-28.1-60.2-42.1-91.1-42.1c-20.5,0-36.3,4.5-47.2,13.4c-10.9,8.9-16.4,21.2-16.4,37
					c0,16.4,5.8,28.4,17.5,36c8.3,5.5,21.9,9.2,40.8,11.3c27.8,3.4,46.1,6.2,55,8.2c25.2,6.2,43.8,17.6,55.8,34.4
					c12,16.8,18,40.6,18,71.4c0,39.4-9.4,69.9-28.3,91.5c-18.9,21.6-46,32.4-81.3,32.4c-51.3,0-91.2-20.9-119.6-62.7l18.3-44.7
					c31.5,35.6,65.3,53.4,101.6,53.4c23.5,0,41.7-6,54.7-18c12.4-11.6,18.6-27.6,18.6-47.8c0-23.6-8.1-39.4-24.4-47.3
					c-8.5-4.1-31.5-8.4-68.8-12.8c-33.1-4.1-56.4-12.3-69.7-24.7c-15.5-14.4-23.3-38.5-23.3-72.4c0-34.9,8.8-62.5,26.5-82.7
					c17.7-20.2,42.6-30.3,74.8-30.3c43.3,0,79.6,18.3,108.8,55L5247.6,2124.6z"/>
			</g>
		</g>
	</g>
</g>
</svg>
